<?xml version="1.0" encoding="utf-8"?>
<!-- Generator: Adobe Illustrator 23.0.2, SVG Export Plug-In . SVG Version: 6.00 Build 0)  -->
<svg version="1.1"
	 id="Calque_1" focusable="false" xmlns:cc="http://creativecommons.org/ns#" xmlns:dc="http://purl.org/dc/elements/1.1/" xmlns:inkscape="http://www.inkscape.org/namespaces/inkscape" xmlns:rdf="http://www.w3.org/1999/02/22-rdf-syntax-ns#" xmlns:sodipodi="http://sodipodi.sourceforge.net/DTD/sodipodi-0.dtd" xmlns:svg="http://www.w3.org/2000/svg"
	 xmlns="http://www.w3.org/2000/svg" xmlns:xlink="http://www.w3.org/1999/xlink" x="0px" y="0px" viewBox="0 0 151.7 193"
	 style="enable-background:new 0 0 151.7 193;" xml:space="preserve">
<style type="text/css">
	.st0{opacity:0.29;enable-background:new    ;}
	.st1{fill:#FFFFFF;}
</style>
<sodipodi:namedview  bordercolor="#666666" borderopacity="1" gridtolerance="10" guidetolerance="10" id="namedview843" inkscape:current-layer="Calque_1" inkscape:cx="128" inkscape:cy="256" inkscape:pageopacity="0" inkscape:pageshadow="2" inkscape:window-height="1001" inkscape:window-maximized="1" inkscape:window-width="1920" inkscape:window-x="-9" inkscape:window-y="-9" inkscape:zoom="1.578125" objecttolerance="10" pagecolor="#ffffff" showgrid="false">
	</sodipodi:namedview>
<g id="g840" transform="rotate(180,128.15,241.01832)">
	<path id="path834" inkscape:connector-curvature="0" class="st0" d="M105.1,293.6c50.9,0,91.2,41.2,91.2,92.1s-40.3,92.1-91.2,92.1
		s-92.2-41.2-92.2-92.1S54.2,293.6,105.1,293.6"/>
	<rect id="rect836" x="10" y="293.6" class="st1" width="94.6" height="184.3"/>
	<path id="path838" inkscape:connector-curvature="0" class="st1" d="M129.5,383l24.2-21.7c1.7-1.5,4.4-1.5,6,0l4,3.6
		c1.7,1.5,1.7,3.9,0,5.4l-17,15.4l17.2,15.4c1.7,1.5,1.7,3.9,0,5.4l-4,3.6c-1.7,1.5-4.4,1.5-6,0l-24.2-21.7
		C127.9,386.9,127.9,384.5,129.5,383z"/>
</g>
</svg>
