<?xml version="1.0" encoding="utf-8"?>
<!-- Generator: Adobe Illustrator 23.0.2, SVG Export Plug-In . SVG Version: 6.00 Build 0)  -->
<svg version="1.1" id="Calque_1" focusable="false" xmlns="http://www.w3.org/2000/svg" xmlns:xlink="http://www.w3.org/1999/xlink"
	 x="0px" y="0px" viewBox="0 0 159.9 197" style="enable-background:new 0 0 159.9 197;" xml:space="preserve">
<style type="text/css">
	.st0{opacity:0.29;enable-background:new    ;}
	.st1{fill:#FFFFFF;}
</style>
<g>
	<path class="st0" d="M0.1,8.8C51,8.8,92.2,50,92.2,100.9S51,193,0.1,193s-92.2-41.2-92.2-92.1S-50.8,8.8,0.1,8.8"/>
	<rect x="-92.1" y="8.8" class="st1" width="92.1" height="184.3"/>
	<path class="st1" d="M24.8,98.2L49,76.5c1.7-1.5,4.4-1.5,6,0l4,3.6c1.7,1.5,1.7,3.9,0,5.4l-17,15.4l17.2,15.4
		c1.7,1.5,1.7,3.9,0,5.4l-4,3.6c-1.7,1.5-4.4,1.5-6,0L25,103.6C23.2,102.1,23.2,99.7,24.8,98.2L24.8,98.2z"/>
</g>
</svg>
