<?xml version="1.0" encoding="utf-8"?>
<!-- Generator: Adobe Illustrator 23.0.2, SVG Export Plug-In . SVG Version: 6.00 Build 0)  -->
<svg version="1.1" id="Calque_1" focusable="false" xmlns="http://www.w3.org/2000/svg" xmlns:xlink="http://www.w3.org/1999/xlink"
	 x="0px" y="0px" viewBox="0 0 512 512" style="enable-background:new 0 0 512 512;" xml:space="preserve">
<style type="text/css">
	.st0{fill:#60AFD4;}
	.st1{opacity:0.34;fill:none;stroke:#000000;stroke-width:4;stroke-miterlimit:10;}
	.st2{fill:#FFFFFF;}
</style>
<path class="st0" d="M354.7,293.3h-148v-98c0-2.8-2.5-5.2-5.5-5.2h-11c-3,0-5.5,2.3-5.5,5.2v108.3c0,5.7,4.9,10.3,11,10.3h159
	c3,0,5.5-2.3,5.5-5.2v-10.3C360.2,295.6,357.8,293.3,354.7,293.3z M343.8,200.5h-40.4c-7.3,0-11,8.3-5.8,13.2l11.1,10.4l-25.1,23.7
	l-25.1-23.6c-4.3-4-11.2-4-15.5,0l-23.5,22.1c-2.1,2-2.1,5.3,0,7.3l7.7,7.3c2.1,2,5.6,2,7.8,0l15.8-14.8l25.1,23.6
	c4.3,4,11.2,4,15.5,0l32.9-30.9l11.1,10.4c5.2,4.9,14,1.4,14-5.5v-38.1C349.2,202.8,346.8,200.5,343.8,200.5z"/>
<circle class="st1" cx="256" cy="252" r="219.3"/>
<ellipse class="st2" cx="462.9" cy="252" rx="31.6" ry="72.9"/>
<circle class="st0" cx="462.9" cy="252" r="37.9"/>
</svg>
