<?xml version="1.0" encoding="utf-8"?>
<!-- Generator: Adobe Illustrator 23.0.2, SVG Export Plug-In . SVG Version: 6.00 Build 0)  -->
<svg version="1.1" id="Calque_1" focusable="false" xmlns="http://www.w3.org/2000/svg" xmlns:xlink="http://www.w3.org/1999/xlink"
	 x="0px" y="0px" viewBox="0 0 544 512" style="enable-background:new 0 0 544 512;" xml:space="preserve">
<style type="text/css">
	.st0{fill:#60AFD4;}
	.st1{opacity:0.34;fill:none;stroke:#000000;stroke-width:4;stroke-miterlimit:10;}
	.st2{fill:#FFFFFF;}
</style>
<path class="st0" d="M338,261.8h-68l45.3,48.1c1.7,1.8,4.6,2,6.4,0.2c11.1-11.1,18.7-26.1,21-42.9C343,264.3,340.8,261.8,338,261.8
	L338,261.8z M333.5,242c-2.4-36.4-29.7-65.4-64-68c-2.6-0.2-4.8,2.1-4.8,4.9v68.1h64.1C331.5,247.2,333.7,244.8,333.5,242L333.5,242
	z M251,261.8v-72.3c0-2.9-2.4-5.3-5.1-4.9c-34.2,5.1-60.3,36.8-59,74.8c1.2,39,32.9,71,69.6,70.5c14.4-0.2,27.8-5.1,38.8-13.4
	c2.3-1.7,2.4-5.2,0.4-7.3L251,261.8z"/>
<circle class="st1" cx="273" cy="256" r="219.3"/>
<ellipse class="st2" cx="483.9" cy="256" rx="31.6" ry="72.9"/>
<circle class="st0" cx="483.9" cy="256" r="37.9"/>
</svg>
