<?xml version="1.0" encoding="utf-8"?>
<!-- Generator: Adobe Illustrator 23.0.2, SVG Export Plug-In . SVG Version: 6.00 Build 0)  -->
<svg version="1.1" id="Calque_1" focusable="false" xmlns="http://www.w3.org/2000/svg" xmlns:xlink="http://www.w3.org/1999/xlink"
	 x="0px" y="0px" viewBox="0 0 512 512" style="enable-background:new 0 0 512 512;" xml:space="preserve">
<style type="text/css">
	.st0{fill:#60AFD4;}
	.st1{opacity:0.34;fill:none;stroke:#000000;stroke-width:4;stroke-miterlimit:10;}
	.st2{fill:#FFFFFF;}
</style>
<path class="st0" d="M335.7,254.4l-33.1-10v-30c0-4.1-3.2-7.8-8-9.3l-34.3-10.4c-2.8-0.9-5.9-0.9-8.7,0l-34.3,10.4
	c-4.8,1.5-8,5.2-8,9.3v30l-33.1,10c-4.8,1.5-8,5.2-8,9.3v30.4c0,3.8,2.6,7.2,6.8,8.9l34.3,13.8c3.5,1.4,7.6,1.4,11,0l35.6-14.4
	l35.6,14.4c3.5,1.4,7.6,1.4,11,0l34.3-13.8c4.2-1.7,6.8-5.1,6.8-8.9v-30.4C343.7,259.6,340.5,255.9,335.7,254.4z M290.9,244.6
	l-29.1,8.8v-18.8l29.1-10.2V244.6z M221.1,214l34.9-10.6l34.9,10.6v0.2L256,225.6l-34.9-11.4C221.1,214.2,221.1,214,221.1,214z
	 M249.8,294.5l-29.1,11.7v-21.9l29.1-10.7V294.5z M249.8,263.5L214.9,275l-34.9-11.4v-0.2l34.9-10.6l34.9,10.6V263.5z M332.1,294.5
	l-29.1,11.7v-21.9l29.1-10.7V294.5z M332.1,263.5L297.1,275l-34.9-11.4v-0.2l34.9-10.6l34.9,10.6V263.5z"/>
<circle class="st1" cx="257" cy="256" r="219.3"/>
<ellipse class="st2" cx="470.9" cy="263.9" rx="31.6" ry="72.9"/>
<circle class="st0" cx="470.9" cy="263.9" r="37.9"/>
</svg>
