<?xml version="1.0" encoding="UTF-8" standalone="no"?>
<!-- Generator: Adobe Illustrator 23.0.2, SVG Export Plug-In . SVG Version: 6.00 Build 0)  -->

<svg
   xmlns:dc="http://purl.org/dc/elements/1.1/"
   xmlns:cc="http://creativecommons.org/ns#"
   xmlns:rdf="http://www.w3.org/1999/02/22-rdf-syntax-ns#"
   xmlns:svg="http://www.w3.org/2000/svg"
   xmlns="http://www.w3.org/2000/svg"
   xmlns:sodipodi="http://sodipodi.sourceforge.net/DTD/sodipodi-0.dtd"
   xmlns:inkscape="http://www.inkscape.org/namespaces/inkscape"
   version="1.1"
   id="Calque_1"
   x="0px"
   y="0px"
   viewBox="0 0 576 512"
   style="enable-background:new 0 0 576 512;"
   xml:space="preserve"
   sodipodi:docname="eye-regular2.svg"
   inkscape:version="0.92.4 (5da689c313, 2019-01-14)"><metadata
   id="metadata970"><rdf:RDF><cc:Work
       rdf:about=""><dc:format>image/svg+xml</dc:format><dc:type
         rdf:resource="http://purl.org/dc/dcmitype/StillImage" /></cc:Work></rdf:RDF></metadata><defs
   id="defs968" /><sodipodi:namedview
   pagecolor="#ffffff"
   bordercolor="#666666"
   borderopacity="1"
   objecttolerance="10"
   gridtolerance="10"
   guidetolerance="10"
   inkscape:pageopacity="0"
   inkscape:pageshadow="2"
   inkscape:window-width="1920"
   inkscape:window-height="1001"
   id="namedview966"
   showgrid="false"
   inkscape:zoom="1.84375"
   inkscape:cx="249.46356"
   inkscape:cy="212.63101"
   inkscape:window-x="-9"
   inkscape:window-y="-9"
   inkscape:window-maximized="1"
   inkscape:current-layer="g960" />
<style
   type="text/css"
   id="style955">
	.st0{stroke:#FFFFFF;stroke-width:17;stroke-miterlimit:10;}
	.st1{fill:#FFFFFF;}
</style>
<g
   focusable="false"
   id="g960"
   style="fill:#008080">
	<circle
   class="st0"
   cx="283.5"
   cy="283.5"
   r="193.5"
   id="circle957"
   style="fill:#00809f;fill-opacity:1;opacity:1" />
	<g
   id="Calque_4"
   style="fill:#008080">
	</g>
</g>
<g
   id="Calque_3">
</g>
<path
   class="st1"
   d="M283.6,255.3c-3,0-5.9,0.5-8.8,1.4c1.3,2.2,2,4.8,2,7.3c0,8.4-7,15.2-15.7,15.2c-2.7,0-5.3-0.7-7.6-2  c-4.8,16.1,4.8,32.9,21.5,37.5s34.1-4.6,38.9-20.7s-4.8-32.9-21.5-37.5C289.5,255.7,286.5,255.3,283.6,255.3z M363.5,281.7  c-15.2-28.7-45.4-48.2-80-48.2s-64.7,19.4-80,48.2c-1.3,2.5-1.3,5.4,0,7.9c15.2,28.7,45.4,48.2,80,48.2s64.7-19.4,80-48.2  C364.8,287.1,364.8,284.2,363.5,281.7z M283.6,324.8c-27.7,0-53.2-14.9-66.9-39.1c13.7-24.2,39.2-39.1,66.9-39.1  s53.2,14.9,66.9,39.1C336.7,309.8,311.3,324.8,283.6,324.8z"
   id="path963" />
</svg>